<?xml version="1.0" encoding="UTF-8" standalone="no"?>
<svg width="810px" height="69px" viewBox="0 0 810 69" version="1.1" xmlns="http://www.w3.org/2000/svg" xmlns:xlink="http://www.w3.org/1999/xlink" xmlns:sketch="http://www.bohemiancoding.com/sketch/ns">
    <!-- Generator: Sketch 3.2.2 (9983) - http://www.bohemiancoding.com/sketch -->
    <title>assets</title>
    <desc>Created with Sketch.</desc>
    <defs>
        <rect id="path-1" x="0.904925594" y="0" width="12" height="10.8961232"></rect>
        <filter x="-50%" y="-50%" width="200%" height="200%" filterUnits="objectBoundingBox" id="filter-3">
            <feOffset dx="-0.5" dy="-0.5" in="SourceAlpha" result="shadowOffsetOuter1"></feOffset>
            <feGaussianBlur stdDeviation="0.25" in="shadowOffsetOuter1" result="shadowBlurOuter1"></feGaussianBlur>
            <feColorMatrix values="0 0 0 0 0   0 0 0 0 0   0 0 0 0 0  0 0 0 0.19544837 0" in="shadowBlurOuter1" type="matrix" result="shadowMatrixOuter1"></feColorMatrix>
            <feOffset dx="1" dy="2" in="SourceAlpha" result="shadowOffsetInner1"></feOffset>
            <feGaussianBlur stdDeviation="1" in="shadowOffsetInner1" result="shadowBlurInner1"></feGaussianBlur>
            <feComposite in="shadowBlurInner1" in2="SourceAlpha" operator="arithmetic" k2="-1" k3="1" result="shadowInnerInner1"></feComposite>
            <feColorMatrix values="0 0 0 0 0   0 0 0 0 0   0 0 0 0 0  0 0 0 0.429950747 0" in="shadowInnerInner1" type="matrix" result="shadowMatrixInner1"></feColorMatrix>
            <feMerge>
                <feMergeNode in="shadowMatrixOuter1"></feMergeNode>
                <feMergeNode in="SourceGraphic"></feMergeNode>
                <feMergeNode in="shadowMatrixInner1"></feMergeNode>
            </feMerge>
        </filter>
        <rect id="path-4" x="0.904925594" y="0" width="12" height="10.8961232"></rect>
        <filter x="-50%" y="-50%" width="200%" height="200%" filterUnits="objectBoundingBox" id="filter-6">
            <feOffset dx="-0.5" dy="-0.5" in="SourceAlpha" result="shadowOffsetOuter1"></feOffset>
            <feGaussianBlur stdDeviation="0.25" in="shadowOffsetOuter1" result="shadowBlurOuter1"></feGaussianBlur>
            <feColorMatrix values="0 0 0 0 0   0 0 0 0 0   0 0 0 0 0  0 0 0 0.19544837 0" in="shadowBlurOuter1" type="matrix" result="shadowMatrixOuter1"></feColorMatrix>
            <feOffset dx="1" dy="2" in="SourceAlpha" result="shadowOffsetInner1"></feOffset>
            <feGaussianBlur stdDeviation="1" in="shadowOffsetInner1" result="shadowBlurInner1"></feGaussianBlur>
            <feComposite in="shadowBlurInner1" in2="SourceAlpha" operator="arithmetic" k2="-1" k3="1" result="shadowInnerInner1"></feComposite>
            <feColorMatrix values="0 0 0 0 0   0 0 0 0 0   0 0 0 0 0  0 0 0 0.429950747 0" in="shadowInnerInner1" type="matrix" result="shadowMatrixInner1"></feColorMatrix>
            <feMerge>
                <feMergeNode in="shadowMatrixOuter1"></feMergeNode>
                <feMergeNode in="SourceGraphic"></feMergeNode>
                <feMergeNode in="shadowMatrixInner1"></feMergeNode>
            </feMerge>
        </filter>
        <linearGradient x1="0%" y1="50%" x2="100%" y2="50%" id="linearGradient-7">
            <stop stop-color="#FF0000" offset="0%"></stop>
            <stop stop-color="#FFFF00" offset="18.3673469%"></stop>
            <stop stop-color="#00FF00" offset="33.3406409%"></stop>
            <stop stop-color="#00FFFF" offset="50.9526467%"></stop>
            <stop stop-color="#0000FF" offset="67.2851562%"></stop>
            <stop stop-color="#FF00FF" offset="84.2075893%"></stop>
            <stop stop-color="#FF0000" offset="100%"></stop>
        </linearGradient>
        <linearGradient x1="50%" y1="0%" x2="50%" y2="100%" id="linearGradient-8">
            <stop stop-color="#FFFFFF" offset="0%"></stop>
            <stop stop-color="#FFFFFF" stop-opacity="0" offset="48.8779496%"></stop>
            <stop stop-color="#000000" stop-opacity="0" offset="48.9995217%"></stop>
            <stop stop-color="#000000" offset="100%"></stop>
        </linearGradient>
        <linearGradient x1="50%" y1="0%" x2="50%" y2="100%" id="linearGradient-9">
            <stop stop-color="#FBFCFC" offset="0%"></stop>
            <stop stop-color="#E9E9EA" offset="100%"></stop>
        </linearGradient>
        <filter x="-50%" y="-50%" width="200%" height="200%" filterUnits="objectBoundingBox" id="filter-10">
            <feMorphology radius="0.001" in="SourceAlpha" operator="dilate" result="shadowSpreadOuter1"></feMorphology>
            <feOffset dx="0" dy="1" in="shadowSpreadOuter1" result="shadowOffsetOuter1"></feOffset>
            <feGaussianBlur stdDeviation="0" in="shadowOffsetOuter1" result="shadowBlurOuter1"></feGaussianBlur>
            <feColorMatrix values="0 0 0 0 0.95   0 0 0 0 0.95   0 0 0 0 0.95  0 0 0 0.7 0" in="shadowBlurOuter1" type="matrix" result="shadowMatrixOuter1"></feColorMatrix>
            <feMerge>
                <feMergeNode in="shadowMatrixOuter1"></feMergeNode>
                <feMergeNode in="SourceGraphic"></feMergeNode>
            </feMerge>
        </filter>
        <filter x="-50%" y="-50%" width="200%" height="200%" filterUnits="objectBoundingBox" id="filter-11">
            <feMorphology radius="0.001" in="SourceAlpha" operator="dilate" result="shadowSpreadOuter1"></feMorphology>
            <feOffset dx="0" dy="1" in="shadowSpreadOuter1" result="shadowOffsetOuter1"></feOffset>
            <feGaussianBlur stdDeviation="0" in="shadowOffsetOuter1" result="shadowBlurOuter1"></feGaussianBlur>
            <feColorMatrix values="0 0 0 0 0.95   0 0 0 0 0.95   0 0 0 0 0.95  0 0 0 0.7 0" in="shadowBlurOuter1" type="matrix" result="shadowMatrixOuter1"></feColorMatrix>
            <feMerge>
                <feMergeNode in="shadowMatrixOuter1"></feMergeNode>
                <feMergeNode in="SourceGraphic"></feMergeNode>
            </feMerge>
        </filter>
        <filter x="-50%" y="-50%" width="200%" height="200%" filterUnits="objectBoundingBox" id="filter-12">
            <feMorphology radius="0.001" in="SourceAlpha" operator="dilate" result="shadowSpreadOuter1"></feMorphology>
            <feOffset dx="0" dy="1" in="shadowSpreadOuter1" result="shadowOffsetOuter1"></feOffset>
            <feGaussianBlur stdDeviation="0" in="shadowOffsetOuter1" result="shadowBlurOuter1"></feGaussianBlur>
            <feColorMatrix values="0 0 0 0 0.95   0 0 0 0 0.95   0 0 0 0 0.95  0 0 0 0.7 0" in="shadowBlurOuter1" type="matrix" result="shadowMatrixOuter1"></feColorMatrix>
            <feMerge>
                <feMergeNode in="shadowMatrixOuter1"></feMergeNode>
                <feMergeNode in="SourceGraphic"></feMergeNode>
            </feMerge>
        </filter>
        <filter x="-50%" y="-50%" width="200%" height="200%" filterUnits="objectBoundingBox" id="filter-13">
            <feOffset dx="0" dy="1" in="SourceAlpha" result="shadowOffsetOuter1"></feOffset>
            <feGaussianBlur stdDeviation="0" in="shadowOffsetOuter1" result="shadowBlurOuter1"></feGaussianBlur>
            <feColorMatrix values="0 0 0 0 0.48627451   0 0 0 0 0.749019608   0 0 0 0 0.862745098  0 0 0 0.7 0" in="shadowBlurOuter1" type="matrix" result="shadowMatrixOuter1"></feColorMatrix>
            <feMerge>
                <feMergeNode in="shadowMatrixOuter1"></feMergeNode>
                <feMergeNode in="SourceGraphic"></feMergeNode>
            </feMerge>
        </filter>
        <filter x="-50%" y="-50%" width="200%" height="200%" filterUnits="objectBoundingBox" id="filter-14">
            <feOffset dx="0" dy="1" in="SourceAlpha" result="shadowOffsetOuter1"></feOffset>
            <feGaussianBlur stdDeviation="0" in="shadowOffsetOuter1" result="shadowBlurOuter1"></feGaussianBlur>
            <feColorMatrix values="0 0 0 0 0.48627451   0 0 0 0 0.749019608   0 0 0 0 0.862745098  0 0 0 0.7 0" in="shadowBlurOuter1" type="matrix" result="shadowMatrixOuter1"></feColorMatrix>
            <feMerge>
                <feMergeNode in="shadowMatrixOuter1"></feMergeNode>
                <feMergeNode in="SourceGraphic"></feMergeNode>
            </feMerge>
        </filter>
        <filter x="-50%" y="-50%" width="200%" height="200%" filterUnits="objectBoundingBox" id="filter-15">
            <feOffset dx="0" dy="1" in="SourceAlpha" result="shadowOffsetOuter1"></feOffset>
            <feGaussianBlur stdDeviation="0" in="shadowOffsetOuter1" result="shadowBlurOuter1"></feGaussianBlur>
            <feColorMatrix values="0 0 0 0 0.48627451   0 0 0 0 0.749019608   0 0 0 0 0.862745098  0 0 0 0.7 0" in="shadowBlurOuter1" type="matrix" result="shadowMatrixOuter1"></feColorMatrix>
            <feMerge>
                <feMergeNode in="shadowMatrixOuter1"></feMergeNode>
                <feMergeNode in="SourceGraphic"></feMergeNode>
            </feMerge>
        </filter>
    </defs>
    <g id="Page-1" stroke="none" stroke-width="1" fill="none" fill-rule="evenodd" sketch:type="MSPage">
        <g id="assets" sketch:type="MSArtboardGroup">
            <g id="Enter-full-screen" sketch:type="MSLayerGroup" transform="translate(0.000000, -1.000000)" fill="#0F75BC">
                <path d="M23,9 L25,9 L25,9 L25,1 L18,1 L18,1 L18,3 L23,3 L23,9 L23,9 Z M8,19 L8,21 L0,21 L0,1 L8,1 L8,1 L8,3 L2,3 L2,9 L0,9 L0,13 L2,13 L2,19 L8,19 L8,19 Z M23,13 L25,13 L25,21 L18,21 L18,21 L18,19 L23,19 L23,13 L23,13 Z M6,6 L19,6 L19,16 L6,16 L6,6 Z" id="Rectangle-1" sketch:type="MSShapeGroup"></path>
            </g>
            <g id="Exit-full-screen" sketch:type="MSLayerGroup" transform="translate(0.000000, 20.000000)" fill="#0F75BC">
                <path d="M20,20 L22,20 L22,16 L26,16 L26,14 L26,14 L20,14 L20,20 L20,20 Z M6,20 L4,20 L4,16 L0,16 L0,4 L4,4 L4,0 L6,0 L6,6 L0,6 L0,14 L6,14 L6,20 L6,20 Z M20,0 L22,0 L22,4 L22,4 L26,4 L26,6 L20,6 L20,-5.55111512e-17 L20,0 Z M8,6 L19,6 L19,14 L8,14 L8,6 Z" id="Rectangle-1" sketch:type="MSShapeGroup"></path>
            </g>
            <g id="Flag-(off)" sketch:type="MSLayerGroup" transform="translate(26.000000, 0.000000)" fill="#4B6D3C">
                <path d="M1.5,21 L0,19.5 L4.55638274,0.092163039 L6.5,0.092163039 L6,2.49999995 C6,2.49999995 7,1.99999995 9,2.49999995 C11,2.99999995 12,4.49999995 15.5,4.49999995 C19,4.49999995 19.952628,3.95826191 19.952628,3.95826191 L19.1313073,13.8070751 C19.1313073,13.8070751 17,14.8070755 14,14.5 C11,14.1929245 11,12.5 8,12 C5,11.5 3.5,12.5 3.5,12.5 L1.5,21 Z" id="Path-1" sketch:type="MSShapeGroup"></path>
            </g>
            <g id="Flag-(on)" sketch:type="MSLayerGroup" transform="translate(26.000000, 21.000000)" fill="#3CE214">
                <path d="M1.5,21 L0,19.5 L4.55638274,0.092163039 L6.5,0.092163039 L6,2.49999995 C6,2.49999995 7,1.99999995 9,2.49999995 C11,2.99999995 12,4.49999995 15.5,4.49999995 C19,4.49999995 19.952628,3.95826191 19.952628,3.95826191 L19.1313073,13.8070751 C19.1313073,13.8070751 17,14.8070755 14,14.5 C11,14.1929245 11,12.5 8,12 C5,11.5 3.5,12.5 3.5,12.5 L1.5,21 Z" id="Path-1" sketch:type="MSShapeGroup"></path>
            </g>
            <g id="Stop-(off)" sketch:type="MSLayerGroup" transform="translate(46.000000, 0.000000)" fill="#A01212">
                <path d="M0.5,14.5 L0.5,6 L6.5,0.5 L15,0.5 L20.5,6 L20.5,14.5 L14.5,20.5 L6.5,20.5 L0.5,14.5 Z" id="Path-3" sketch:type="MSShapeGroup"></path>
            </g>
            <g id="Stop-(on)" sketch:type="MSLayerGroup" transform="translate(46.000000, 21.000000)" fill="#E81818">
                <path d="M0.5,14.5 L0.5,6 L6.5,0.5 L15,0.5 L20.5,6 L20.5,14.5 L14.5,20.5 L6.5,20.5 L0.5,14.5 Z" id="Path-3" sketch:type="MSShapeGroup"></path>
            </g>
            <g id="Language-(off)" sketch:type="MSLayerGroup" transform="translate(69.000000, 2.000000)" stroke="#FFFFFF">
                <path d="M8,15 C12.0040644,15 15.25,11.7540644 15.25,7.75 C15.25,3.74593556 12.0040644,0.5 8,0.5 C3.99593556,0.5 0.75,3.74593556 0.75,7.75 C0.75,11.7540644 3.99593556,15 8,15 Z M8,15 C9.93299662,15 11.5,11.7540644 11.5,7.75 C11.5,3.74593556 9.93299662,0.5 8,0.5 C6.06700338,0.5 4.5,3.74593556 4.5,7.75 C4.5,11.7540644 6.06700338,15 8,15 Z M0.5,7.5 L15.5,7.5 M0.5,7.5 L15.5,7.5 M1.5,10.5 L14.5,10.5 M8,4.5 L1.5,4.5 L8,4.5 L8,0.5 L8,4.5 Z M8,4.5 L14.5,4.5 L8,4.5 L8,15 L8,4.5 Z" id="Oval-1" sketch:type="MSShapeGroup"></path>
            </g>
            <g id="Language-(on)" sketch:type="MSLayerGroup" transform="translate(69.000000, 21.000000)" stroke="#FBA939">
                <path d="M8,15 C12.0040644,15 15.25,11.7540644 15.25,7.75 C15.25,3.74593556 12.0040644,0.5 8,0.5 C3.99593556,0.5 0.75,3.74593556 0.75,7.75 C0.75,11.7540644 3.99593556,15 8,15 Z M8,15 C9.93299662,15 11.5,11.7540644 11.5,7.75 C11.5,3.74593556 9.93299662,0.5 8,0.5 C6.06700338,0.5 4.5,3.74593556 4.5,7.75 C4.5,11.7540644 6.06700338,15 8,15 Z M0.5,7.5 L15.5,7.5 M0.5,7.5 L15.5,7.5 M1.5,10.5 L14.5,10.5 M8,4.5 L1.5,4.5 L8,4.5 L8,0.5 L8,4.5 Z M8,4.5 L14.5,4.5 L8,4.5 L8,15 L8,4.5 Z" id="Oval-1" sketch:type="MSShapeGroup"></path>
            </g>
            <g id="Tips-home-(off)" sketch:type="MSLayerGroup" transform="translate(86.000000, 23.000000)" fill="#6D6E71">
                <path d="M0,8 L9,0 L18,8 L15,8 L15,15 L10.5,15 L10.5,10 L7,10 L7,15 L3,15 L3,8 L0,8 Z" id="Path-15" sketch:type="MSShapeGroup"></path>
            </g>
            <g id="Tips-home-(on)" sketch:type="MSLayerGroup" transform="translate(86.000000, 38.000000)" fill="#4EA9DC">
                <path d="M0,8 L9,0 L18,8 L15,8 L15,15 L10.5,15 L10.5,10 L7,10 L7,15 L3,15 L3,8 L0,8 Z" id="Path-15" sketch:type="MSShapeGroup"></path>
            </g>
            <g id="See-inside" sketch:type="MSLayerGroup" transform="translate(88.000000, 3.000000)" fill="#FFFFFF">
                <path d="M7,18 L13,13 L7,7.5 L7.00000016,10.5 C7.00000016,10.5 3.49999992,10.5 3.49999992,8.5 C3.49999992,6.5 6.5,3.5 6.5,3.5 C6.5,3.5 -0.499999969,7 0.999999995,11 C1.00073197,11.0019519 1.00146466,11.0039029 1.00219807,11.005853 C2.50439075,15 7,15 7,15 L7,18 Z" id="Path-17" sketch:type="MSShapeGroup"></path>
                <path d="M17,14.75 L23,9.75 L17,4.25 L17.0000002,7.25 C17.0000002,7.25 13.4999999,7.25 13.4999999,5.25 C13.4999999,3.25 16.5,0.25 16.5,0.25 C16.5,0.25 9.50000003,3.75 11,7.75 C11.000732,7.75195194 11.0014647,7.75390292 11.0021981,7.75585296 C12.5043907,11.75 17,11.75 17,11.75 L17,14.75 Z" id="Path-18" sketch:type="MSShapeGroup" transform="translate(16.894641, 7.500000) rotate(-180.000000) translate(-16.894641, -7.500000) "></path>
            </g>
            <g id="Info-(off)" sketch:type="MSLayerGroup" transform="translate(212.000000, 0.000000)">
                <circle id="Oval-5" fill="#007BE7" sketch:type="MSShapeGroup" cx="8.25" cy="8.75" r="8.25"></circle>
                <path d="M6,14 L11,14 L10,13 L10,8 L6,8 L7,9 L7,13 L6,14 Z M8.5,6.5 C9.32842712,6.5 10,5.82842712 10,5 C10,4.17157288 9.32842712,3.5 8.5,3.5 C7.67157288,3.5 7,4.17157288 7,5 C7,5.82842712 7.67157288,6.5 8.5,6.5 Z" id="Path-19" fill="#FFFFFF" sketch:type="MSShapeGroup"></path>
            </g>
            <g id="Info-(on)" sketch:type="MSLayerGroup" transform="translate(212.000000, 18.000000)">
                <circle id="Oval-5" fill="#1E9ED6" sketch:type="MSShapeGroup" cx="8.25" cy="8.75" r="8.25"></circle>
                <path d="M6,14 L11,14 L10,13 L10,8 L6,8 L7,9 L7,13 L6,14 Z M8.5,6.5 C9.32842712,6.5 10,5.82842712 10,5 C10,4.17157288 9.32842712,3.5 8.5,3.5 C7.67157288,3.5 7,4.17157288 7,5 C7,5.82842712 7.67157288,6.5 8.5,6.5 Z" id="Path-19" fill="#FFFFFF" sketch:type="MSShapeGroup"></path>
            </g>
            <g id="Flag-(block)" sketch:type="MSLayerGroup" transform="translate(266.000000, 0.000000)" fill="#3F8D15">
                <path d="M3,41.9999999 L0,38.9999999 L9.11276548,0.184326078 L13,0.184326078 L12,4.99999991 C12,4.99999991 14,3.99999991 18,4.99999991 C22,5.99999991 24,8.99999991 31,8.99999991 C38,8.99999991 39.9052559,7.91652383 39.9052559,7.91652383 L38.2626146,27.6141503 C38.2626146,27.6141503 34,29.6141509 28,28.9999999 C22,28.3858489 22,24.9999999 16,23.9999999 C10,22.9999999 7,24.9999999 7,24.9999999 L3,41.9999999 Z" id="Path-1" sketch:type="MSShapeGroup"></path>
            </g>
            <g id="Line-(off)" sketch:type="MSLayerGroup" transform="translate(437.000000, 8.000000)" stroke="#414141" stroke-width="2" stroke-linecap="round">
                <path d="M0.5,0.5 L13,16" id="Path-22" sketch:type="MSShapeGroup"></path>
            </g>
            <g id="Line-(on)" sketch:type="MSLayerGroup" transform="translate(437.000000, 42.000000)" stroke="#FAFAFA" stroke-width="2" stroke-linecap="round">
                <path d="M0.5,0.5 L13,16" id="Path-23" sketch:type="MSShapeGroup"></path>
            </g>
            <g id="Rectangle-(off)" sketch:type="MSLayerGroup" transform="translate(470.000000, 11.000000)" fill="#414141">
                <rect id="Rectangle-15" sketch:type="MSShapeGroup" x="0" y="0" width="20" height="11"></rect>
            </g>
            <g id="Rectangle-(on)" sketch:type="MSLayerGroup" transform="translate(470.000000, 45.000000)" fill="#FAFAFA">
                <rect id="Rectangle-15" sketch:type="MSShapeGroup" x="0" y="0" width="20" height="11"></rect>
            </g>
            <g id="Ellipse-(off)" sketch:type="MSLayerGroup" transform="translate(509.000000, 7.000000)" fill="#414141">
                <circle id="Oval-9" sketch:type="MSShapeGroup" cx="9" cy="9.25" r="9"></circle>
            </g>
            <g id="Ellipse-(on)" sketch:type="MSLayerGroup" transform="translate(509.000000, 41.200001)" fill="#FAFAFA">
                <circle id="Oval-9" sketch:type="MSShapeGroup" cx="9" cy="9.25" r="9"></circle>
            </g>
            <g id="Text-(off)" sketch:type="MSLayerGroup" transform="translate(546.000000, 1.000000)" font-weight="bold" font-family="Times New Roman" fill="#414141" font-size="27" sketch:alignment="middle">
                <text id="T" sketch:type="MSTextLayer">
                    <tspan x="0.995605469" y="24.2">T</tspan>
                </text>
            </g>
            <g id="Text-(on)" sketch:type="MSLayerGroup" transform="translate(546.000000, 35.250000)" font-weight="bold" font-family="Times New Roman" fill="#FAFAFA" font-size="27" sketch:alignment="middle">
                <text id="T" sketch:type="MSTextLayer">
                    <tspan x="0.995605469" y="24.2">T</tspan>
                </text>
            </g>
            <g id="Fill-(off)" sketch:type="MSLayerGroup" transform="translate(584.000000, 7.000000)">
                <path d="M6.63310512,19.0419789 C7.38802022,19.8472217 8.64725765,19.888701 9.4560081,19.1248811 L17,12 L17,16 L19.0000008,16 C19.0000008,16 20.5000008,11 18.5000008,9 C16.0000003,6.49999955 14,6.5 14,6.5 L10.229834,3 L1.21545792,11.8014423 C0.820321415,12.1872451 0.803297923,12.8235178 1.17880282,13.2240564 L6.63310512,19.0419789 Z" id="Path-24" fill="#414141" sketch:type="MSShapeGroup"></path>
                <path d="M7.50000003,7.00000001 C7.50000003,7.00000001 4.49999999,1.50000002 6.99999995,0.499999996 C9.49999991,-0.500000027 10.4999999,4.49999989 10.4999999,4.49999989" id="Path-25" stroke="#414141" stroke-width="1.5" sketch:type="MSShapeGroup"></path>
            </g>
            <g id="Fill-(on)" sketch:type="MSLayerGroup" transform="translate(584.000000, 41.000000)">
                <path d="M6.63310512,19.0419789 C7.38802022,19.8472217 8.64725765,19.888701 9.4560081,19.1248811 L17,12 L17,16 L19.0000008,16 C19.0000008,16 20.5000008,11 18.5000008,9 C16.0000003,6.49999955 14,6.5 14,6.5 L10.229834,3 L1.21545792,11.8014423 C0.820321415,12.1872451 0.803297923,12.8235178 1.17880282,13.2240564 L6.63310512,19.0419789 Z" id="Path-24" fill="#FAFAFA" sketch:type="MSShapeGroup"></path>
                <path d="M7.50000003,7.00000001 C7.50000003,7.00000001 4.49999999,1.50000002 6.99999995,0.499999996 C9.49999991,-0.500000027 10.4999999,4.49999989 10.4999999,4.49999989" id="Path-25" stroke="#FAFAFA" stroke-width="1.5" sketch:type="MSShapeGroup"></path>
            </g>
            <g id="Paintbrush-(off)" sketch:type="MSLayerGroup" transform="translate(390.000000, 8.000000)">
                <path d="M1.5,15.5 L8.5,8.5 L12.5,8.5" id="Path-28" stroke="#414141" sketch:type="MSShapeGroup"></path>
                <path d="M12,8.5 L20.5,0" id="Path-29" stroke="#414141" stroke-width="1.5" sketch:type="MSShapeGroup"></path>
                <path d="M17,10.5 L27.5,0" id="Path-30" stroke="#414141" stroke-width="1.5" sketch:type="MSShapeGroup"></path>
                <path d="M0.5,17 C7,17 13.5,17.5 16,11 C16,10.9999999 17.5,11 17.5,11 L16.5,10 L13.5,7.5 L12,9 L13.5,10.5 C13.5,10.5 10.5,12.0044446 8.5,14.5 C5,15.5 1.14788818,15.1504517 1.14788818,15.1504517" id="Path-31" fill="#414141" sketch:type="MSShapeGroup"></path>
            </g>
            <g id="Paintbrush-(on)" sketch:type="MSLayerGroup" transform="translate(390.000000, 42.000000)">
                <path d="M1.5,15.5 L8.5,8.5 L12.5,8.5" id="Path-28" stroke="#FAFAFA" sketch:type="MSShapeGroup"></path>
                <path d="M12,8.5 L20.5,0" id="Path-29" stroke="#FAFAFA" stroke-width="1.5" sketch:type="MSShapeGroup"></path>
                <path d="M17,10.5 L27.5,0" id="Path-30" stroke="#FAFAFA" stroke-width="1.5" sketch:type="MSShapeGroup"></path>
                <path d="M0.5,17 C7,17 13.5,17.5 16,11 C16,10.9999999 17.5,11 17.5,11 L16.5,10 L13.5,7.5 L12,9 L13.5,10.5 C13.5,10.5 10.5,12.0044446 8.5,14.5 C5,15.5 1.14788818,15.1504517 1.14788818,15.1504517" id="Path-31" fill="#FAFAFA" sketch:type="MSShapeGroup"></path>
            </g>
            <g id="Eraser-(off)" sketch:type="MSLayerGroup" transform="translate(623.000000, 10.000000)">
                <path d="M18.5000009,1.49999998 L11.2007018,0.50422368 L2.49999999,7.60514197 L0.129984844,13.0208022 L9.03704507,14.7060605 M11,9 L2.50000001,7.5" id="Path-36" stroke="#414141" sketch:type="MSShapeGroup"></path>
                <path d="M8.5,14.5 L9,15 L18,6 L19,1 C19,1 18.4999999,0.999999996 18.4999999,1 L10,8.5 L8.5,14.5 Z" id="Path-38" fill="#414141" sketch:type="MSShapeGroup"></path>
            </g>
            <g id="Eraser-(on)" sketch:type="MSLayerGroup" transform="translate(623.000000, 44.000000)">
                <path d="M18.5000009,1.49999998 L11.2007018,0.50422368 L2.49999999,7.60514197 L0.129984844,13.0208022 L9.03704507,14.7060605 M11,9 L2.50000001,7.5" id="Path-36" stroke="#FAFAFA" sketch:type="MSShapeGroup"></path>
                <path d="M8.5,14.5 L9,15 L18,6 L19,1 C19,1 18.4999999,0.999999996 18.4999999,1 L10,8.5 L8.5,14.5 Z" id="Path-38" fill="#FAFAFA" sketch:type="MSShapeGroup"></path>
            </g>
            <g id="Select-(off)" sketch:type="MSLayerGroup" transform="translate(659.000000, 6.000000)">
                <path d="M19,5.83917382 L19,1 L14,1 L14,1 L14,3 L17,3 L17,4.92268641 C17.1552099,4.93070272 17.3216402,4.95541004 17.5,5 C18.240079,5.18501974 18.7062995,5.50696869 19,5.83917382 Z M10.3288765,20 L7,20 L7,18 L8.46577528,18 L10.3288765,20 Z M0,13 L0,8 L1.11022302e-15,8 L2,8 L2,13 L-1.66533454e-16,13 L0,13 Z M0,15 L0,20 L5,20 L5,18 L2,18 L2,15 L1.11022302e-15,15 L0,15 Z M0,6 L0,1 L5,1 L5,1 L5,3 L2,3 L2,6 L-1.66533454e-16,6 L0,6 Z M12,1 L7,1 L7,1 L7,3 L12,3 L12,1 L12,1 Z" id="Rectangle-18" fill="#414141" sketch:type="MSShapeGroup"></path>
                <path d="M11.5,21 L11.5,19.5 C11.5,19.5 8,15.5 7.00000002,14 C6.00000004,12.5 7.49999996,11 8.99999995,12 C10.4999999,13 10.5000001,14 10.5000001,14 C10.5,11.5 8.99999991,9.49999998 8.49999995,7.99999999 C8,6.5 10,6 11,7 C12,8 12.5,11 12.5,11 C12.5,11 12.5,9.50000003 12.5,7 C12.5,4.49999998 15.5,4.99999999 15.5,6.49999999 C15.5,7.99999999 15.5,11 15.5,11 C15.5,11 15.5,7.49999995 15.5,7.5 C16,5.49999999 18.4999999,5.99999998 18.5,7.99999999 C18.5,10 18.5,11 18.5,12 C18.5,8.99999999 21,7.00000001 21.5,9.5 C22,12 18.5,18.5 18.5,18.5 L18.5,21" id="Path-42" stroke="#414141" sketch:type="MSShapeGroup"></path>
            </g>
            <g id="Select-(on)" sketch:type="MSLayerGroup" transform="translate(659.000000, 41.000000)">
                <path d="M19,4.83917382 L19,0 L14,0 L14,-1.11022302e-16 L14,2 L17,2 L17,3.92268641 C17.1552099,3.93070272 17.3216402,3.95541004 17.5,4 C18.240079,4.18501974 18.7062995,4.50696869 19,4.83917382 Z M10.3288765,19 L7,19 L7,17 L8.46577528,17 L10.3288765,19 Z M0,12 L0,7 L1.11022302e-15,7 L2,7 L2,12 L-1.66533454e-16,12 L0,12 Z M0,14 L0,19 L5,19 L5,17 L2,17 L2,14 L1.11022302e-15,14 L0,14 Z M0,5 L0,0 L5,0 L5,-1.16573418e-15 L5,2 L2,2 L2,5 L-1.66533454e-16,5 L0,5 Z M12,0 L7,0 L7,-1.11022302e-16 L7,2 L12,2 L12,-1.16573418e-15 L12,0 Z" id="Rectangle-18" fill="#FAFAFA" sketch:type="MSShapeGroup"></path>
                <path d="M11.5,20 L11.5,18.5 C11.5,18.5 8,14.5 7.00000002,13 C6.00000004,11.5 7.49999996,9.99999999 8.99999995,11 C10.4999999,12 10.5000001,13 10.5000001,13 C10.5,10.5 8.99999991,8.49999998 8.49999995,6.99999999 C8,5.5 10,5 11,6 C12,7 12.5,9.99999999 12.5,9.99999999 C12.5,9.99999999 12.5,8.50000003 12.5,6 C12.5,3.49999998 15.5,3.99999999 15.5,5.49999999 C15.5,6.99999999 15.5,9.99999999 15.5,9.99999999 C15.5,9.99999999 15.5,6.49999995 15.5,6.5 C16,4.49999999 18.4999999,4.99999998 18.5,6.99999999 C18.5,9 18.5,9.99999999 18.5,11 C18.5,7.99999999 21,6.00000001 21.5,8.5 C22,11 18.5,17.5 18.5,17.5 L18.5,20" id="Path-42" stroke="#FAFAFA" sketch:type="MSShapeGroup"></path>
            </g>
            <g id="Stamp-(off)" sketch:type="MSLayerGroup" transform="translate(698.000000, 7.000000)" fill="#414141">
                <path d="M7.5,6.87265536 L7.5,12.5 L2.50591905,12.5 C1.39808055,12.5 0.5,13.3890552 0.5,14.4999717 L0.5,17 L2.5,17 L2.5,20 L16.4859457,20 L16.4859453,17 L18.5,17 L18.5,14.4999717 C18.5,13.3954178 17.6134452,12.5 16.4940809,12.5 L11.5,12.5 L11.5,6.87265536 C12.406742,6.24018229 13,5.18937256 13,4 C13,2.06700338 11.4329966,0.5 9.5,0.5 C7.56700338,0.5 6,2.06700338 6,4 C6,5.18937256 6.59325795,6.24018229 7.5,6.87265536 Z" id="Path-46" sketch:type="MSShapeGroup"></path>
            </g>
            <g id="Stamp-(on)" sketch:type="MSLayerGroup" transform="translate(698.000000, 41.000000)" fill="#FAFAFA">
                <path d="M7.5,6.87265536 L7.5,12.5 L2.50591905,12.5 C1.39808055,12.5 0.5,13.3890552 0.5,14.4999717 L0.5,17 L2.5,17 L2.5,20 L16.4859457,20 L16.4859453,17 L18.5,17 L18.5,14.4999717 C18.5,13.3954178 17.6134452,12.5 16.4940809,12.5 L11.5,12.5 L11.5,6.87265536 C12.406742,6.24018229 13,5.18937256 13,4 C13,2.06700338 11.4329966,0.5 9.5,0.5 C7.56700338,0.5 6,2.06700338 6,4 C6,5.18937256 6.59325795,6.24018229 7.5,6.87265536 Z" id="Path-46" sketch:type="MSShapeGroup"></path>
            </g>
            <g id="Checkbox-(off)" sketch:type="MSLayerGroup" transform="translate(308.095074, 0.103877)">
                <mask id="mask-2" sketch:name="Rectangle 31" fill="white">
                    <use xlink:href="#path-1"></use>
                </mask>
                <use id="Rectangle-31" sketch:type="MSShapeGroup" xlink:href="#path-1"></use>
                <rect id="Rectangle-30" fill="#CECBCE" filter="url(#filter-3)" sketch:type="MSShapeGroup" mask="url(#mask-2)" x="1.90492559" y="0.896123238" width="12" height="10"></rect>
            </g>
            <g id="Checkbox-(on)" sketch:type="MSLayerGroup" transform="translate(308.095074, 12.000000)">
                <mask id="mask-5" sketch:name="Rectangle 31" fill="white">
                    <use xlink:href="#path-4"></use>
                </mask>
                <use id="Rectangle-31" sketch:type="MSShapeGroup" xlink:href="#path-4"></use>
                <rect id="Rectangle-30" fill="#CECBCE" filter="url(#filter-6)" sketch:type="MSShapeGroup" mask="url(#mask-5)" x="1.90492559" y="0.896123238" width="12" height="10"></rect>
                <path d="M3.40492559,8 C3.40492559,8 5.40492559,8 7.40492559,10.5 C9.40492559,6.5 10.9049256,5.5 11.9049256,5 L11.9049256,2 C9.90492559,3 7.90492559,6.5 7.40492559,8 C6.90492559,7 5.40492559,6 5.40492559,6 L3.40492559,8 Z" id="Path-48" fill="#000000" sketch:type="MSShapeGroup" mask="url(#mask-5)"></path>
            </g>
            <g id="Camera-(off)" sketch:type="MSLayerGroup" transform="translate(172.000000, 2.000000)" fill="#5C5D5D">
                <path d="M5,3 L1.99742191,3 C0.890925393,3 0,3.8918564 0,4.99201702 L0,12.007983 C0,13.0998238 0.894276248,14 1.99742191,14 L17.0025781,14 C18.1090746,14 19,13.1081436 19,12.007983 L19,4.99201702 C19,3.90017617 18.1057238,3 17.0025781,3 L14,3 L14,1.99791312 C14,0.898260623 13.1057373,0 12.0026083,0 L6.9973917,0 C5.89585781,0 5,0.894496173 5,1.99791312 L5,3 Z M9.5,12.5 C11.709139,12.5 13.5,10.709139 13.5,8.5 C13.5,6.290861 11.709139,4.5 9.5,4.5 C7.290861,4.5 5.5,6.290861 5.5,8.5 C5.5,10.709139 7.290861,12.5 9.5,12.5 Z M9.5,11 C10.8807119,11 12,9.88071187 12,8.5 C12,7.11928813 10.8807119,6 9.5,6 C8.11928813,6 7,7.11928813 7,8.5 C7,9.88071187 8.11928813,11 9.5,11 Z M15,5 L16,5 L16,7 L15,7 L15,5 Z" id="Rectangle-35" sketch:type="MSShapeGroup"></path>
            </g>
            <g id="Camera-(on)" sketch:type="MSLayerGroup" transform="translate(172.000000, 21.000000)" fill="#1D9ED6">
                <path d="M5,3 L1.99742191,3 C0.890925393,3 0,3.8918564 0,4.99201702 L0,12.007983 C0,13.0998238 0.894276248,14 1.99742191,14 L17.0025781,14 C18.1090746,14 19,13.1081436 19,12.007983 L19,4.99201702 C19,3.90017617 18.1057238,3 17.0025781,3 L14,3 L14,1.99791312 C14,0.898260623 13.1057373,0 12.0026083,0 L6.9973917,0 C5.89585781,0 5,0.894496173 5,1.99791312 L5,3 Z M9.5,12.5 C11.709139,12.5 13.5,10.709139 13.5,8.5 C13.5,6.290861 11.709139,4.5 9.5,4.5 C7.290861,4.5 5.5,6.290861 5.5,8.5 C5.5,10.709139 7.290861,12.5 9.5,12.5 Z M9.5,11 C10.8807119,11 12,9.88071187 12,8.5 C12,7.11928813 10.8807119,6 9.5,6 C8.11928813,6 7,7.11928813 7,8.5 C7,9.88071187 8.11928813,11 9.5,11 Z M15,5 L16,5 L16,7 L15,7 L15,5 Z" id="Rectangle-35" sketch:type="MSShapeGroup"></path>
            </g>
            <g id="Upload-(off)" sketch:type="MSLayerGroup" transform="translate(153.000000, 0.000000)" fill="#5C5D5D">
                <path d="M0,12 L3.5,19 L18.0068263,19 C18.555341,19 19,18.5508308 19,18.0073128 L19,6.49268723 C19,5.94444121 18.5562834,5.5 18.0001925,5.5 L14.6952286,5.5 C14.3112644,5.5 14,5.8125 14,6.19950294 L14,6.80049706 C14,7.18682186 14.3210526,7.5 14.6958008,7.5 L17,7.5 L17,15 L15,12 L5,12 L5,7.5 L7.30419922,7.5 C7.68847938,7.5 8,7.1875 8,6.80049706 L8,6.19950294 C8,5.81317814 7.68722761,5.5 7.30477142,5.5 L3.99980749,5.5 C3.44762906,5.5 3,5.94677132 3,6.50138006 L3,12 L0,12 Z M12,9 L10,9 L10,5 L9,5 C8.44771525,5 8,4.55806351 8,4.00783157 L8,3.5 L11,0 L14,3.5 L14,4.00783157 C14,4.55579106 13.5561352,5 13,5 L12,5 L12,9 Z" id="Path-49" sketch:type="MSShapeGroup"></path>
            </g>
            <g id="Upload-(on)" sketch:type="MSLayerGroup" transform="translate(153.000000, 19.000000)" fill="#1D9ED6">
                <path d="M0,12 L3.5,19 L18.0068263,19 C18.555341,19 19,18.5508308 19,18.0073128 L19,6.49268723 C19,5.94444121 18.5562834,5.5 18.0001925,5.5 L14.6952286,5.5 C14.3112644,5.5 14,5.8125 14,6.19950294 L14,6.80049706 C14,7.18682186 14.3210526,7.5 14.6958008,7.5 L17,7.5 L17,15 L15,12 L5,12 L5,7.5 L7.30419922,7.5 C7.68847938,7.5 8,7.1875 8,6.80049706 L8,6.19950294 C8,5.81317814 7.68722761,5.5 7.30477142,5.5 L3.99980749,5.5 C3.44762906,5.5 3,5.94677132 3,6.50138006 L3,12 L0,12 Z M12,9 L10,9 L10,5 L9,5 C8.44771525,5 8,4.55806351 8,4.00783157 L8,3.5 L11,0 L14,3.5 L14,4.00783157 C14,4.55579106 13.5561352,5 13,5 L12,5 L12,9 Z" id="Path-49" sketch:type="MSShapeGroup"></path>
            </g>
            <g id="Paint-(off)" sketch:type="MSLayerGroup" transform="translate(137.000000, 0.000000)" fill="#5C5D5D">
                <path d="M0,18.9999998 C0,18.9999998 0.5,13.5 3,14 C5.5,14.5 3.5,18.4999999 0,18.9999998 Z M12.5,0 C11.5,7.9999999 4.5,14 4.5,14 L2.99999999,14 C3.49999997,10.5 9.73439024,1.53019512 11.5,0 C11.5,0 12.5,4.4408921e-16 12.5,0 Z" id="Path-53" sketch:type="MSShapeGroup"></path>
            </g>
            <g id="Paint-(on)" sketch:type="MSLayerGroup" transform="translate(137.000000, 19.000000)" fill="#1D9ED6">
                <path d="M0,18.9999998 C0,18.9999998 0.5,13.5 3,14 C5.5,14.5 4,17.9999999 0,18.9999998 Z M12.5,0 C11.5,7.9999999 4.5,14 4.5,14 L2.99999999,14 C3.49999997,10.5 9.73439024,1.53019512 11.5,0 C11.5,0 12.5,4.4408921e-16 12.5,0 Z" id="Path-53" sketch:type="MSShapeGroup"></path>
            </g>
            <g id="Backdrop-(off)" sketch:type="MSLayerGroup" transform="translate(192.000000, 2.000000)" fill="#5C5D5D">
                <path d="M0,15 L19,15 L19,0 L0,0 L0,15 Z M1,1 L18,1 L18,8 L13.5,3.5 L7,10 L3.5,6.5 L1,9 L1,1 Z M7.99584053,5.95661523 C9.10041003,5.95661523 9.99584053,5.06118473 9.99584053,3.95661523 C9.99584053,2.85204573 9.10041003,1.95661523 7.99584053,1.95661523 C6.89127103,1.95661523 5.99584053,2.85204573 5.99584053,3.95661523 C5.99584053,5.06118473 6.89127103,5.95661523 7.99584053,5.95661523 Z" id="Path-57" sketch:type="MSShapeGroup"></path>
            </g>
            <g id="Backdrop-(on)" sketch:type="MSLayerGroup" transform="translate(192.000000, 21.000000)" fill="#1D9ED6">
                <path d="M0,15 L19,15 L19,0 L0,0 L0,15 Z M1,1 L18,1 L18,8 L13.5,3.5 L7,10 L3.5,6.5 L1,9 L1,1 Z M7.99584053,5.95661523 C9.10041003,5.95661523 9.99584053,5.06118473 9.99584053,3.95661523 C9.99584053,2.85204573 9.10041003,1.95661523 7.99584053,1.95661523 C6.89127103,1.95661523 5.99584053,2.85204573 5.99584053,3.95661523 C5.99584053,5.06118473 6.89127103,5.95661523 7.99584053,5.95661523 Z" id="Path-57" sketch:type="MSShapeGroup"></path>
            </g>
            <g id="Library-(off)" sketch:type="MSLayerGroup" transform="translate(116.000000, 0.000000)" fill="#5C5D5D">
                <path d="M9.5,0 C11,4 13.5,4 14.5000001,7.5 C14.9364797,9.02767862 17,7 17,7 C17,7 16.5,14 10,16.5 C10.5,17 11,17 11,17.5 C11,17.7282283 10.2740494,17.7060749 10,18 C9.67366512,18.3500026 9.77177167,19 9.5,19 C8.99999999,19 8.86090324,18 8.50000001,18 C7.86606411,18 7.50000001,19 7.50000001,19 C6.50000001,18 7.11086699,17.5713376 7.00000001,16.5 C6.94419365,15.9607281 6.16741238,15.5022371 6.00000001,15 C2.50000001,15 0.848775715,8.19334439 0.500000009,7.5 C2.10644473,8.5 3.00000001,8.5 3.50000001,6.5 C4.00000001,4.5 8.50390626,4 9.5,0 Z M10.9999999,10 C12,10.5 13.9999999,13.5 10.9999999,14.5 C7.99999988,15.5 5.00000001,13.9999999 5.50000003,12.4999999 C5.94433444,11.1669967 4.99999985,9.99999998 5.99999997,9.50000001 C7.00000008,9.00000003 7.35162431,10 8.00000008,10 C10.0000002,10 9.99999976,9.5 10.9999999,10 Z M7,12 C7.55228475,12 8,11.7761424 8,11.5 C8,11.2238576 7.55228475,11 7,11 C6.44771525,11 6,11.2238576 6,11.5 C6,11.7761424 6.44771525,12 7,12 Z M11,12 C11.5522847,12 12,11.7761424 12,11.5 C12,11.2238576 11.5522847,11 11,11 C10.4477153,11 10,11.2238576 10,11.5 C10,11.7761424 10.4477153,12 11,12 Z M9,14 C10.5000001,13.9999999 10.5,12.5415988 10,13 C9.49999997,13.4584012 8.5,13.438635 8,13 C7.5,12.561365 7.49999991,14.0000001 9,14 Z" id="Path-61" sketch:type="MSShapeGroup"></path>
            </g>
            <g id="Library-(on)" sketch:type="MSLayerGroup" transform="translate(116.000000, 19.000000)" fill="#1D9ED6">
                <path d="M9.5,0 C11,4 13.5,4 14.5000001,7.5 C14.9364797,9.02767862 17,7 17,7 C17,7 16.5,14 10,16.5 C10.5,17 11,17 11,17.5 C11,17.7282283 10.2740494,17.7060749 10,18 C9.67366512,18.3500026 9.77177167,19 9.5,19 C8.99999999,19 8.86090324,18 8.50000001,18 C7.86606411,18 7.50000001,19 7.50000001,19 C6.50000001,18 7.11086699,17.5713376 7.00000001,16.5 C6.94419365,15.9607281 6.16741238,15.5022371 6.00000001,15 C2.50000001,15 0.848775715,8.19334439 0.500000009,7.5 C2.10644473,8.5 3.00000001,8.5 3.50000001,6.5 C4.00000001,4.5 8.50390626,4 9.5,0 Z M10.9999999,10 C12,10.5 13.9999999,13.5 10.9999999,14.5 C7.99999988,15.5 5.00000001,13.9999999 5.50000003,12.4999999 C5.94433444,11.1669967 4.99999985,9.99999998 5.99999997,9.50000001 C7.00000008,9.00000003 7.35162431,10 8.00000008,10 C10.0000002,10 9.99999976,9.5 10.9999999,10 Z M7,12 C7.55228475,12 8,11.7761424 8,11.5 C8,11.2238576 7.55228475,11 7,11 C6.44771525,11 6,11.2238576 6,11.5 C6,11.7761424 6.44771525,12 7,12 Z M11,12 C11.5522847,12 12,11.7761424 12,11.5 C12,11.2238576 11.5522847,11 11,11 C10.4477153,11 10,11.2238576 10,11.5 C10,11.7761424 10.4477153,12 11,12 Z M9,14 C10.5000001,13.9999999 10.5,12.5415988 10,13 C9.49999997,13.4584012 8.5,13.438635 8,13 C7.5,12.561365 7.49999991,14.0000001 9,14 Z" id="Path-61" sketch:type="MSShapeGroup"></path>
            </g>
            <g id="Add" sketch:type="MSLayerGroup" transform="translate(310.000000, 26.000000)">
                <circle id="Oval-25" fill="#DEDEDE" sketch:type="MSShapeGroup" cx="5.5" cy="5.5" r="5.5"></circle>
                <path d="M5.5,5.5 L5.5,9 L5.5,5.5 L2,5.5 L5.5,5.5 Z M5.5,5.5 L5.5,2 L5.5,5.5 L9,5.5 L5.5,5.5 Z" id="Path-65" stroke="#707070" sketch:type="MSShapeGroup"></path>
            </g>
            <g id="Swatches" sketch:type="MSLayerGroup" transform="translate(323.000000, 0.000000)">
                <rect id="Rectangle-39" fill="#A3A1A1" sketch:type="MSShapeGroup" x="0" y="0" width="37" height="32"></rect>
                <rect id="Rectangle-48" fill="#FFFFFF" sketch:type="MSShapeGroup" x="2" y="2" width="33" height="28"></rect>
                <g id="Row-1" transform="translate(3.000000, 3.000000)" sketch:type="MSShapeGroup">
                    <rect id="Rectangle-40" fill="#404040" x="0" y="0" width="3" height="3"></rect>
                    <rect id="Rectangle-41" fill="#616161" x="4" y="0" width="3" height="3"></rect>
                    <rect id="Rectangle-42" fill="#909090" x="8" y="0" width="3" height="3"></rect>
                    <rect id="Rectangle-43" fill="#AEAEAE" x="12" y="0" width="3" height="3"></rect>
                    <rect id="Rectangle-44" fill="#C2C2C2" x="16" y="0" width="3" height="3"></rect>
                    <rect id="Rectangle-45" fill="#CECECE" x="20" y="0" width="3" height="3"></rect>
                    <rect id="Rectangle-46" fill="#E3E3E3" x="24" y="0" width="3" height="3"></rect>
                    <rect id="Rectangle-47" fill="#FFFFFF" x="28" y="0" width="3" height="3"></rect>
                </g>
                <g id="Row-2" transform="translate(3.000000, 7.000000)" sketch:type="MSShapeGroup">
                    <rect id="Rectangle-40" fill="#ED2200" x="0" y="0" width="3" height="3"></rect>
                    <rect id="Rectangle-41" fill="#EF9300" x="4" y="0" width="3" height="3"></rect>
                    <rect id="Rectangle-42" fill="#F2F400" x="8" y="0" width="3" height="3"></rect>
                    <rect id="Rectangle-43" fill="#3BF300" x="12" y="0" width="3" height="3"></rect>
                    <rect id="Rectangle-44" fill="#3AF1F3" x="16" y="0" width="3" height="3"></rect>
                    <rect id="Rectangle-45" fill="#497CE3" x="20" y="0" width="3" height="3"></rect>
                    <rect id="Rectangle-46" fill="#0432FD" x="24" y="0" width="3" height="3"></rect>
                    <rect id="Rectangle-47" fill="#8D36FC" x="28" y="0" width="3" height="3"></rect>
                </g>
                <g id="Row-3" transform="translate(3.000000, 11.000000)" sketch:type="MSShapeGroup">
                    <rect id="Rectangle-40" fill="#E6C2C2" x="0" y="0" width="3" height="3"></rect>
                    <rect id="Rectangle-41" fill="#EED9C0" x="4" y="0" width="3" height="3"></rect>
                    <rect id="Rectangle-42" fill="#F2E7BE" x="8" y="0" width="3" height="3"></rect>
                    <rect id="Rectangle-43" fill="#CFDEC6" x="12" y="0" width="3" height="3"></rect>
                    <rect id="Rectangle-44" fill="#C6D5D7" x="16" y="0" width="3" height="3"></rect>
                    <rect id="Rectangle-45" fill="#C0CEEE" x="20" y="0" width="3" height="3"></rect>
                    <rect id="Rectangle-46" fill="#C5D6E9" x="24" y="0" width="3" height="3"></rect>
                    <rect id="Rectangle-47" fill="#CEC7DF" x="28" y="0" width="3" height="3"></rect>
                </g>
                <g id="Row-4" transform="translate(3.000000, 15.000000)" sketch:type="MSShapeGroup">
                    <rect id="Rectangle-40" fill="#DB9290" x="0" y="0" width="3" height="3"></rect>
                    <rect id="Rectangle-41" fill="#EAC28E" x="4" y="0" width="3" height="3"></rect>
                    <rect id="Rectangle-42" fill="#F1DA86" x="8" y="0" width="3" height="3"></rect>
                    <rect id="Rectangle-43" fill="#AFCC9A" x="12" y="0" width="3" height="3"></rect>
                    <rect id="Rectangle-44" fill="#9CBAC0" x="16" y="0" width="3" height="3"></rect>
                    <rect id="Rectangle-45" fill="#9DB7EC" x="20" y="0" width="3" height="3"></rect>
                    <rect id="Rectangle-46" fill="#99BADF" x="24" y="0" width="3" height="3"></rect>
                    <rect id="Rectangle-47" fill="#AA9DCF" x="28" y="0" width="3" height="3"></rect>
                </g>
                <g id="Row-5" transform="translate(3.000000, 19.000000)" sketch:type="MSShapeGroup">
                    <rect id="Rectangle-40" fill="#BE1900" x="0" y="0" width="3" height="3"></rect>
                    <rect id="Rectangle-41" fill="#D78B17" x="4" y="0" width="3" height="3"></rect>
                    <rect id="Rectangle-42" fill="#E3BA00" x="8" y="0" width="3" height="3"></rect>
                    <rect id="Rectangle-43" fill="#69A03B" x="12" y="0" width="3" height="3"></rect>
                    <rect id="Rectangle-44" fill="#457A89" x="16" y="0" width="3" height="3"></rect>
                    <rect id="Rectangle-45" fill="#3C6FD4" x="20" y="0" width="3" height="3"></rect>
                    <rect id="Rectangle-46" fill="#3F7CC1" x="24" y="0" width="3" height="3"></rect>
                    <rect id="Rectangle-47" fill="#6148A4" x="28" y="0" width="3" height="3"></rect>
                </g>
                <g id="Row-6" transform="translate(3.000000, 23.000000)" sketch:type="MSShapeGroup">
                    <rect id="Rectangle-40" fill="#8E1000" x="0" y="0" width="3" height="3"></rect>
                    <rect id="Rectangle-41" fill="#A85B00" x="4" y="0" width="3" height="3"></rect>
                    <rect id="Rectangle-42" fill="#B38A00" x="8" y="0" width="3" height="3"></rect>
                    <rect id="Rectangle-43" fill="#3A7100" x="12" y="0" width="3" height="3"></rect>
                    <rect id="Rectangle-44" fill="#174A58" x="16" y="0" width="3" height="3"></rect>
                    <rect id="Rectangle-45" fill="#164DCA" x="20" y="0" width="3" height="3"></rect>
                    <rect id="Rectangle-46" fill="#114D91" x="24" y="0" width="3" height="3"></rect>
                    <rect id="Rectangle-47" fill="#311774" x="28" y="0" width="3" height="3"></rect>
                </g>
                <g id="Row-7" transform="translate(3.000000, 27.000000)" sketch:type="MSShapeGroup">
                    <rect id="Rectangle-40" fill="#5D0700" x="0" y="0" width="3" height="3"></rect>
                    <rect id="Rectangle-41" fill="#703D00" x="4" y="0" width="3" height="3"></rect>
                    <rect id="Rectangle-42" fill="#785A00" x="8" y="0" width="3" height="3"></rect>
                    <rect id="Rectangle-43" fill="#284A00" x="12" y="0" width="3" height="3"></rect>
                    <rect id="Rectangle-44" fill="#0F313B" x="16" y="0" width="3" height="3"></rect>
                    <rect id="Rectangle-45" fill="#1D3F85" x="20" y="0" width="3" height="3"></rect>
                    <rect id="Rectangle-46" fill="#0A3361" x="24" y="0" width="3" height="3"></rect>
                    <rect id="Rectangle-47" fill="#1D0F4C" x="28" y="0" width="3" height="3"></rect>
                </g>
            </g>
            <g id="Wheel" sketch:type="MSLayerGroup" transform="translate(323.000000, 33.000000)">
                <rect id="Rectangle-98" fill="#A3A1A1" sketch:type="MSShapeGroup" x="0" y="0" width="37" height="32"></rect>
                <rect id="Rectangle-96" fill="url(#linearGradient-7)" sketch:type="MSShapeGroup" x="2" y="2" width="33" height="28"></rect>
                <rect id="Rectangle-97" fill="url(#linearGradient-8)" sketch:type="MSShapeGroup" x="2" y="2" width="33" height="28"></rect>
            </g>
            <g id="Eyedropper-(off)" sketch:type="MSLayerGroup" transform="translate(368.000000, 3.000000)">
                <path d="M5.5,6 C5.5,6 11,15 9.5,16 C8,17 3.5,7 3.5,7" id="Path-67" stroke="#414141" sketch:type="MSShapeGroup"></path>
                <path d="M1.49999995,4.49999999 C0.499999984,6.0000003 1.50593256,7.13435842 1.50593256,7.13435842 C1.77879847,7.61243903 2.3923416,7.80382911 2.89389977,7.55305 L6.1061001,5.9469497 C6.59978731,5.70010607 6.95314587,5.06453304 6.80702556,4.52627602 C6.80702556,4.52627602 6.99999997,2.99999998 4.50000004,2.99999999 C3.49999994,0.999999981 2.5,0.499999984 1.49999995,0.999999991 C0.499999902,1.5 0.499999984,3.00000006 1.49999995,4.49999999 Z" id="Path-68" fill="#414141" sketch:type="MSShapeGroup"></path>
            </g>
            <g id="Eyedropper-(on)" sketch:type="MSLayerGroup" transform="translate(368.000000, 27.000000)">
                <path d="M5.5,6 C5.5,6 11,15 9.5,16 C8,17 3.5,7 3.5,7" id="Path-67" stroke="#FAFAFA" sketch:type="MSShapeGroup"></path>
                <path d="M1.49999995,4.49999999 C0.499999984,6.0000003 1.50593256,7.13435842 1.50593256,7.13435842 C1.77879847,7.61243903 2.3923416,7.80382911 2.89389977,7.55305 L6.1061001,5.9469497 C6.59978731,5.70010607 6.95314587,5.06453304 6.80702556,4.52627602 C6.80702556,4.52627602 6.99999997,2.99999998 4.50000004,2.99999999 C3.49999994,0.999999981 2.5,0.499999984 1.49999995,0.999999991 C0.499999902,1.5 0.499999984,3.00000006 1.49999995,4.49999999 Z" id="Path-68" fill="#FAFAFA" sketch:type="MSShapeGroup"></path>
            </g>
            <g id="Zoom-out-(off)" sketch:type="MSLayerGroup" transform="translate(728.500000, 1.500000)">
                <path d="M0,8.99922983 C0,4.02909244 4.03058885,0 9.00499642,0 L24,0 L24,19 L9.00499642,19 C4.03167422,19 0,14.9705887 0,10.0007702 L0,8.99922983 Z" id="Rectangle-99" stroke="#E4E5E5" fill="url(#linearGradient-9)" filter="url(#filter-10)" sketch:type="MSShapeGroup"></path>
                <path d="M11.76,13.3 C14.8086118,13.3 17.28,10.8543554 17.28,7.8375 C17.28,4.82064455 14.8086118,2.375 11.76,2.375 C8.71138818,2.375 6.24,4.82064455 6.24,7.8375 C6.24,10.8543554 8.71138818,13.3 11.76,13.3 Z M8.16,7.8375 C8.16,7.32616857 8.56773268,6.91165254 9.08653424,6.91165254 L14.4334658,6.91165254 C14.9451765,6.91165254 15.36,7.32260366 15.36,7.8375 C15.36,8.34883143 14.9522673,8.76334746 14.4334658,8.76334746 L9.08653424,8.76334746 C8.57482351,8.76334746 8.16,8.35239634 8.16,7.8375 Z" id="Oval-26" fill="#414141" sketch:type="MSShapeGroup"></path>
                <path d="M19.2,15.2 L14.4,10.45" id="Path-71" stroke="#414141" stroke-width="2" stroke-linecap="round" sketch:type="MSShapeGroup"></path>
            </g>
            <g id="Zoom-1:1-(off)" sketch:type="MSLayerGroup" transform="translate(754.000000, 1.000000)">
                <rect id="Rectangle-99" stroke="#E4E5E5" fill="url(#linearGradient-9)" filter="url(#filter-11)" sketch:type="MSShapeGroup" x="0.5" y="0.5" width="24" height="19"></rect>
                <path d="M7,12.5 C7,11.6715729 7.67154063,11 8.50643854,11 L16.4935615,11 C17.3255445,11 18,11.6657972 18,12.5 C18,13.3284271 17.3284594,14 16.4935615,14 L8.50643854,14 C7.67445551,14 7,13.3342028 7,12.5 Z M7,7.5 C7,6.67157288 7.67154063,6 8.50643854,6 L16.4935615,6 C17.3255445,6 18,6.66579723 18,7.5 C18,8.32842712 17.3284594,9 16.4935615,9 L8.50643854,9 C7.67445551,9 7,8.33420277 7,7.5 Z" id="Rectangle-101" fill="#414141" sketch:type="MSShapeGroup"></path>
            </g>
            <g id="Zoom-in-(off)" sketch:type="MSLayerGroup" transform="translate(780.000000, 1.000000)">
                <path d="M0.5,0.5 L15.4950036,0.5 C20.4683258,0.5 24.5,4.52941132 24.5,9.49922983 L24.5,10.5007702 C24.5,15.4709076 20.4694111,19.5 15.4950036,19.5 L0.5,19.5 L0.5,0.5 Z" id="Rectangle-99" stroke="#E4E5E5" fill="url(#linearGradient-9)" filter="url(#filter-12)" sketch:type="MSShapeGroup"></path>
                <path d="M9.5,7.27542373 L7.48095703,7.27542373 C6.93011475,7.27542373 6.5,7.71175639 6.5,8.25 C6.5,8.79199615 6.93918942,9.22457627 7.48095703,9.22457627 L9.5,9.22457627 L9.5,11.2625132 C9.5,11.8082358 9.94771525,12.2627119 10.5,12.2627119 C11.0561352,12.2627119 11.5,11.8149077 11.5,11.2625132 L11.5,9.22457627 L13.519043,9.22457627 C14.0698853,9.22457627 14.5,8.78824361 14.5,8.25 C14.5,7.70800385 14.0608106,7.27542373 13.519043,7.27542373 L11.5,7.27542373 L11.5,5.2374868 C11.5,4.69176418 11.0522847,4.23728814 10.5,4.23728814 C9.94386482,4.23728814 9.5,4.68509233 9.5,5.2374868 L9.5,7.27542373 Z M10.25,14 C13.4256373,14 16,11.4256373 16,8.25 C16,5.07436269 13.4256373,2.5 10.25,2.5 C7.07436269,2.5 4.5,5.07436269 4.5,8.25 C4.5,11.4256373 7.07436269,14 10.25,14 Z" id="Oval-26" fill="#414141" sketch:type="MSShapeGroup"></path>
                <path d="M18,16 L13,11" id="Path-71" stroke="#414141" stroke-width="2" stroke-linecap="round" sketch:type="MSShapeGroup"></path>
            </g>
            <g id="Zoom-out-(on)" sketch:type="MSLayerGroup" transform="translate(728.000000, 24.000000)">
                <path d="M0,9.00537044 C0,4.03184168 4.03056614,0 8.99025355,0 L25,0 L25,20 L8.99025355,20 C4.02507362,20 0,15.9767601 0,10.9946296 L0,9.00537044 Z" id="Rectangle-99" fill="#179DD6" filter="url(#filter-13)" sketch:type="MSShapeGroup"></path>
                <path d="M12.25,14 C15.4256373,14 18,11.4256373 18,8.25 C18,5.07436269 15.4256373,2.5 12.25,2.5 C9.07436269,2.5 6.5,5.07436269 6.5,8.25 C6.5,11.4256373 9.07436269,14 12.25,14 Z M8.5,8.25 C8.5,7.71175639 8.93564942,7.27542373 9.48049402,7.27542373 L15.019506,7.27542373 C15.5610179,7.27542373 16,7.70800385 16,8.25 C16,8.78824361 15.5643506,9.22457627 15.019506,9.22457627 L9.48049402,9.22457627 C8.93898213,9.22457627 8.5,8.79199615 8.5,8.25 Z" id="Oval-26" fill="#FAFAFA" sketch:type="MSShapeGroup"></path>
                <path d="M20,16 L15,11" id="Path-71" stroke="#FAFAFA" stroke-width="2" stroke-linecap="round" sketch:type="MSShapeGroup"></path>
            </g>
            <g id="Zoom-1:1-(on)" sketch:type="MSLayerGroup" transform="translate(754.000000, 24.000000)">
                <rect id="Rectangle-99" fill="#179DD6" filter="url(#filter-14)" sketch:type="MSShapeGroup" x="0" y="0" width="25" height="20"></rect>
                <path d="M7,12.5 C7,11.6715729 7.67154063,11 8.50643854,11 L16.4935615,11 C17.3255445,11 18,11.6657972 18,12.5 C18,13.3284271 17.3284594,14 16.4935615,14 L8.50643854,14 C7.67445551,14 7,13.3342028 7,12.5 Z M7,7.5 C7,6.67157288 7.67154063,6 8.50643854,6 L16.4935615,6 C17.3255445,6 18,6.66579723 18,7.5 C18,8.32842712 17.3284594,9 16.4935615,9 L8.50643854,9 C7.67445551,9 7,8.33420277 7,7.5 Z" id="Rectangle-101" fill="#FAFAFA" sketch:type="MSShapeGroup"></path>
            </g>
            <g id="Zoom-in-(on)" sketch:type="MSLayerGroup" transform="translate(780.000000, 24.000000)">
                <path d="M0,0 L16.0097464,0 C20.9749264,0 25,4.02323995 25,9.00537044 L25,10.9946296 C25,15.9681583 20.9694339,20 16.0097464,20 L0,20 L0,0 Z" id="Rectangle-99" fill="#179DD6" filter="url(#filter-15)" sketch:type="MSShapeGroup"></path>
                <path d="M9.5,7.27542373 L7.48095703,7.27542373 C6.93011475,7.27542373 6.5,7.71175639 6.5,8.25 C6.5,8.79199615 6.93918942,9.22457627 7.48095703,9.22457627 L9.5,9.22457627 L9.5,11.2625132 C9.5,11.8082358 9.94771525,12.2627119 10.5,12.2627119 C11.0561352,12.2627119 11.5,11.8149077 11.5,11.2625132 L11.5,9.22457627 L13.519043,9.22457627 C14.0698853,9.22457627 14.5,8.78824361 14.5,8.25 C14.5,7.70800385 14.0608106,7.27542373 13.519043,7.27542373 L11.5,7.27542373 L11.5,5.2374868 C11.5,4.69176418 11.0522847,4.23728814 10.5,4.23728814 C9.94386482,4.23728814 9.5,4.68509233 9.5,5.2374868 L9.5,7.27542373 Z M10.25,14 C13.4256373,14 16,11.4256373 16,8.25 C16,5.07436269 13.4256373,2.5 10.25,2.5 C7.07436269,2.5 4.5,5.07436269 4.5,8.25 C4.5,11.4256373 7.07436269,14 10.25,14 Z" id="Oval-26" fill="#FAFAFA" sketch:type="MSShapeGroup"></path>
                <path d="M18,16 L13,11" id="Path-71" stroke="#FAFAFA" stroke-width="2" stroke-linecap="round" sketch:type="MSShapeGroup"></path>
            </g>
            <g id="Rotate-clockwise" sketch:type="MSLayerGroup" transform="translate(232.000000, 5.000000)" fill="#FFFFFF">
                <path d="M21.9675953,3.58815374 C19.6349225,1.36491731 16.476858,0 13,0 C5.82029825,0 0,5.82029825 0,13 C0,17.6315337 2.42204432,21.6973686 6.06862821,24 L10,24 L10,21.4878829 C6.50442288,20.2523737 4,16.9186565 4,13 C4,8.02943725 8.02943725,4 13,4 C15.2034631,4 17.2219789,4.79185349 18.7865043,6.10651741 L16.0687904,8.2580409 C15.1970391,8.9481774 15.2960308,9.91174008 16.2779846,10.4196472 L29,17 L26.7916745,1.98338692 C26.6308909,0.890058413 25.7976286,0.556044027 24.9312096,1.2419591 L21.9675953,3.58815374 Z" id="Oval-30" sketch:type="MSShapeGroup"></path>
            </g>
            <g id="Rotate-counterclockwise" sketch:type="MSLayerGroup" transform="translate(231.500000, 34.000000)" fill="#FFFFFF">
                <path d="M21.9675953,4.08815374 C19.6349225,1.86491731 16.476858,0.5 13,0.5 C5.82029825,0.5 0,6.32029825 0,13.5 C0,18.1315337 2.42204432,22.1973686 6.06862821,24.5 L10,24.5 L10,21.9878829 C6.50442288,20.7523737 4,17.4186565 4,13.5 C4,8.52943725 8.02943725,4.5 13,4.5 C15.2034631,4.5 17.2219789,5.29185349 18.7865043,6.60651741 L16.0687904,8.7580409 C15.1970391,9.4481774 15.2960308,10.4117401 16.2779846,10.9196472 L29,17.5 L26.7916745,2.48338692 C26.6308909,1.39005841 25.7976286,1.05604403 24.9312096,1.7419591 L21.9675953,4.08815374 Z" id="Oval-30" sketch:type="MSShapeGroup" transform="translate(14.500000, 12.500000) scale(-1, 1) translate(-14.500000, -12.500000) "></path>
            </g>
        </g>
    </g>
</svg>